# xmcd
#
# Track frame offsets:
#	150
#	14375
#	26283
#	45073
#	57308
#	73810
#	86896
#	101511
#	113761
#	130269
#	148987
#	161033
#	175043
#	186444
#
# Disc length: 2632 seconds
#
# Revision: 0
# Processed by: cddbd v1.5.1PL2 Copyright (c) Steve Scherf et al.
# Submitted via: dBpowerAMP V4.0
#
DISCID=be0a460e
DTITLE=Nico Fidenco - Mi Historia
DYEAR=1970
DGENRE=Ballad
TTITLE0=01 A Casa de Irene
TTITLE1=02 Contigo en la Playa
TTITLE2=03 Ligados
TTITLE3=04 Come Nasce un Amore
TTITLE4=05 La Voglia di Ballare
TTITLE5=06 Ches cos´e I´Amore
TTITLE6=07 Colazione da Tiffani´s
TTITLE7=08 Se mi Perderai
TTITLE8=09 Nessuno
TTITLE9=10 Legata a un granello de Sabbia
TTITLE10=11 Con te sulla Spiaggia
TTITLE11=12 Goccia di mare
TTITLE12=13 Just the same old line
TTITLE13=14 Lasciami il tuo sorriso
EXTD=
EXTT0=
EXTT1=
EXTT2=
EXTT3=
EXTT4=
EXTT5=
EXTT6=
EXTT7=
EXTT8=
EXTT9=
EXTT10=
EXTT11=
EXTT12=
EXTT13=
PLAYORDER=
